<mxfile host="app.diagrams.net" agent="Mozilla/5.0 (Macintosh; Intel Mac OS X 10_15_7) AppleWebKit/537.36 (KHTML, like Gecko) Chrome/127.0.0.0 Safari/537.36 Edg/127.0.0.0" version="24.7.6" pages="4">
  <diagram name="citation" id="4z_1C0ZYD0ua0qC-1658">
    <mxGraphModel dx="1211" dy="622" grid="1" gridSize="10" guides="1" tooltips="1" connect="1" arrows="1" fold="1" page="1" pageScale="1" pageWidth="1169" pageHeight="827" math="0" shadow="0">
      <root>
        <mxCell id="0" />
        <mxCell id="1" parent="0" />
        <mxCell id="R0zG3lId0V-XjDuTrcbh-8" value="Current work" style="rounded=1;whiteSpace=wrap;html=1;fontSize=18;" parent="1" vertex="1">
          <mxGeometry x="60" y="120" width="120" height="60" as="geometry" />
        </mxCell>
        <mxCell id="R0zG3lId0V-XjDuTrcbh-9" value="Prior work" style="rounded=1;whiteSpace=wrap;html=1;fontSize=18;" parent="1" vertex="1">
          <mxGeometry x="420" y="190" width="120" height="40" as="geometry" />
        </mxCell>
        <mxCell id="R0zG3lId0V-XjDuTrcbh-10" value="&lt;span style=&quot;color: rgb(0, 0, 0); font-family: Helvetica; font-size: 18px; font-style: normal; font-variant-ligatures: normal; font-variant-caps: normal; font-weight: 400; letter-spacing: normal; orphans: 2; text-align: center; text-indent: 0px; text-transform: none; widows: 2; word-spacing: 0px; -webkit-text-stroke-width: 0px; white-space: normal; background-color: rgb(251, 251, 251); text-decoration-thickness: initial; text-decoration-style: initial; text-decoration-color: initial; float: none; display: inline !important;&quot;&gt;Prior work&lt;/span&gt;" style="rounded=1;whiteSpace=wrap;html=1;fontSize=18;" parent="1" vertex="1">
          <mxGeometry x="420" y="130" width="120" height="40" as="geometry" />
        </mxCell>
        <mxCell id="R0zG3lId0V-XjDuTrcbh-11" value="Prior work" style="rounded=1;whiteSpace=wrap;html=1;fontSize=18;" parent="1" vertex="1">
          <mxGeometry x="420" y="69" width="120" height="40" as="geometry" />
        </mxCell>
        <mxCell id="R0zG3lId0V-XjDuTrcbh-12" value="" style="endArrow=classic;html=1;rounded=0;exitX=1;exitY=0.5;exitDx=0;exitDy=0;entryX=0;entryY=0.5;entryDx=0;entryDy=0;fontSize=18;" parent="1" source="R0zG3lId0V-XjDuTrcbh-8" target="R0zG3lId0V-XjDuTrcbh-11" edge="1">
          <mxGeometry relative="1" as="geometry">
            <mxPoint x="510" y="250" as="sourcePoint" />
            <mxPoint x="610" y="250" as="targetPoint" />
          </mxGeometry>
        </mxCell>
        <mxCell id="R0zG3lId0V-XjDuTrcbh-13" value="citation" style="edgeLabel;resizable=0;html=1;;align=center;verticalAlign=middle;fontSize=18;rotation=0;" parent="R0zG3lId0V-XjDuTrcbh-12" connectable="0" vertex="1">
          <mxGeometry relative="1" as="geometry">
            <mxPoint x="10" y="-1" as="offset" />
          </mxGeometry>
        </mxCell>
        <mxCell id="R0zG3lId0V-XjDuTrcbh-15" value="" style="endArrow=classic;html=1;rounded=0;exitX=1;exitY=0.5;exitDx=0;exitDy=0;fontSize=18;" parent="1" source="R0zG3lId0V-XjDuTrcbh-8" target="R0zG3lId0V-XjDuTrcbh-10" edge="1">
          <mxGeometry relative="1" as="geometry">
            <mxPoint x="710" y="290" as="sourcePoint" />
            <mxPoint x="1065" y="280" as="targetPoint" />
          </mxGeometry>
        </mxCell>
        <mxCell id="R0zG3lId0V-XjDuTrcbh-16" value="citation" style="edgeLabel;resizable=0;html=1;;align=center;verticalAlign=middle;fontSize=18;" parent="R0zG3lId0V-XjDuTrcbh-15" connectable="0" vertex="1">
          <mxGeometry relative="1" as="geometry">
            <mxPoint x="10" as="offset" />
          </mxGeometry>
        </mxCell>
        <mxCell id="R0zG3lId0V-XjDuTrcbh-18" value="" style="endArrow=classic;html=1;rounded=0;exitX=1;exitY=0.5;exitDx=0;exitDy=0;entryX=0;entryY=0.5;entryDx=0;entryDy=0;fontSize=18;" parent="1" source="R0zG3lId0V-XjDuTrcbh-8" target="R0zG3lId0V-XjDuTrcbh-9" edge="1">
          <mxGeometry relative="1" as="geometry">
            <mxPoint x="200" y="170" as="sourcePoint" />
            <mxPoint x="450" y="190" as="targetPoint" />
          </mxGeometry>
        </mxCell>
        <mxCell id="R0zG3lId0V-XjDuTrcbh-19" value="citation" style="edgeLabel;resizable=0;html=1;;align=center;verticalAlign=middle;fontSize=18;rotation=0;" parent="R0zG3lId0V-XjDuTrcbh-18" connectable="0" vertex="1">
          <mxGeometry relative="1" as="geometry">
            <mxPoint x="10" as="offset" />
          </mxGeometry>
        </mxCell>
        <mxCell id="R0zG3lId0V-XjDuTrcbh-22" value="" style="sketch=0;pointerEvents=1;shadow=0;dashed=0;html=1;strokeColor=none;fillColor=#505050;labelPosition=center;verticalLabelPosition=bottom;verticalAlign=top;outlineConnect=0;align=center;shape=mxgraph.office.users.writer;" parent="1" vertex="1">
          <mxGeometry x="70" y="59.5" width="54" height="59" as="geometry" />
        </mxCell>
      </root>
    </mxGraphModel>
  </diagram>
  <diagram id="TtdVv1HJHLfcyKR2yg6h" name="citation-2">
    <mxGraphModel dx="1211" dy="1449" grid="1" gridSize="10" guides="1" tooltips="1" connect="1" arrows="1" fold="1" page="1" pageScale="1" pageWidth="1169" pageHeight="827" math="0" shadow="0">
      <root>
        <mxCell id="0" />
        <mxCell id="1" parent="0" />
        <mxCell id="oC4DnXtgayPT7bZELjzE-1" value="Current work" style="rounded=1;whiteSpace=wrap;html=1;fontSize=18;" vertex="1" parent="1">
          <mxGeometry x="60" y="120" width="120" height="60" as="geometry" />
        </mxCell>
        <mxCell id="oC4DnXtgayPT7bZELjzE-2" value="&lt;font color=&quot;#004c99&quot;&gt;Prior work&lt;/font&gt;" style="rounded=1;whiteSpace=wrap;html=1;fontSize=18;" vertex="1" parent="1">
          <mxGeometry x="420" y="190" width="120" height="40" as="geometry" />
        </mxCell>
        <mxCell id="oC4DnXtgayPT7bZELjzE-3" value="&lt;span style=&quot;color: rgb(0, 0, 0); font-family: Helvetica; font-size: 18px; font-style: normal; font-variant-ligatures: normal; font-variant-caps: normal; font-weight: 400; letter-spacing: normal; orphans: 2; text-align: center; text-indent: 0px; text-transform: none; widows: 2; word-spacing: 0px; -webkit-text-stroke-width: 0px; white-space: normal; background-color: rgb(251, 251, 251); text-decoration-thickness: initial; text-decoration-style: initial; text-decoration-color: initial; float: none; display: inline !important;&quot;&gt;Prior work&lt;/span&gt;" style="rounded=1;whiteSpace=wrap;html=1;fontSize=18;" vertex="1" parent="1">
          <mxGeometry x="420" y="130" width="120" height="40" as="geometry" />
        </mxCell>
        <mxCell id="oC4DnXtgayPT7bZELjzE-4" value="&lt;font color=&quot;#990000&quot;&gt;Prior work&amp;nbsp;&lt;/font&gt;" style="rounded=1;whiteSpace=wrap;html=1;fontSize=18;" vertex="1" parent="1">
          <mxGeometry x="420" y="69" width="120" height="40" as="geometry" />
        </mxCell>
        <mxCell id="oC4DnXtgayPT7bZELjzE-5" value="" style="endArrow=classic;html=1;rounded=0;exitX=1;exitY=0.5;exitDx=0;exitDy=0;entryX=0;entryY=0.5;entryDx=0;entryDy=0;fontSize=18;strokeColor=#000000;" edge="1" parent="1" source="oC4DnXtgayPT7bZELjzE-1" target="oC4DnXtgayPT7bZELjzE-4">
          <mxGeometry relative="1" as="geometry">
            <mxPoint x="510" y="250" as="sourcePoint" />
            <mxPoint x="610" y="250" as="targetPoint" />
          </mxGeometry>
        </mxCell>
        <mxCell id="oC4DnXtgayPT7bZELjzE-6" value="citation" style="edgeLabel;resizable=0;html=1;;align=center;verticalAlign=middle;fontSize=18;rotation=0;" connectable="0" vertex="1" parent="oC4DnXtgayPT7bZELjzE-5">
          <mxGeometry relative="1" as="geometry">
            <mxPoint x="10" y="-1" as="offset" />
          </mxGeometry>
        </mxCell>
        <mxCell id="oC4DnXtgayPT7bZELjzE-7" value="" style="endArrow=classic;html=1;rounded=0;exitX=1;exitY=0.5;exitDx=0;exitDy=0;fontSize=18;" edge="1" parent="1" source="oC4DnXtgayPT7bZELjzE-1" target="oC4DnXtgayPT7bZELjzE-3">
          <mxGeometry relative="1" as="geometry">
            <mxPoint x="710" y="290" as="sourcePoint" />
            <mxPoint x="1065" y="280" as="targetPoint" />
          </mxGeometry>
        </mxCell>
        <mxCell id="oC4DnXtgayPT7bZELjzE-8" value="citation" style="edgeLabel;resizable=0;html=1;;align=center;verticalAlign=middle;fontSize=18;" connectable="0" vertex="1" parent="oC4DnXtgayPT7bZELjzE-7">
          <mxGeometry relative="1" as="geometry">
            <mxPoint x="10" as="offset" />
          </mxGeometry>
        </mxCell>
        <mxCell id="oC4DnXtgayPT7bZELjzE-9" value="" style="endArrow=classic;html=1;rounded=0;exitX=1;exitY=0.5;exitDx=0;exitDy=0;entryX=0;entryY=0.5;entryDx=0;entryDy=0;fontSize=18;" edge="1" parent="1" source="oC4DnXtgayPT7bZELjzE-1" target="oC4DnXtgayPT7bZELjzE-2">
          <mxGeometry relative="1" as="geometry">
            <mxPoint x="200" y="170" as="sourcePoint" />
            <mxPoint x="450" y="190" as="targetPoint" />
          </mxGeometry>
        </mxCell>
        <mxCell id="oC4DnXtgayPT7bZELjzE-10" value="citation" style="edgeLabel;resizable=0;html=1;;align=center;verticalAlign=middle;fontSize=18;rotation=0;" connectable="0" vertex="1" parent="oC4DnXtgayPT7bZELjzE-9">
          <mxGeometry relative="1" as="geometry">
            <mxPoint x="10" as="offset" />
          </mxGeometry>
        </mxCell>
        <mxCell id="oC4DnXtgayPT7bZELjzE-11" value="" style="sketch=0;pointerEvents=1;shadow=0;dashed=0;html=1;strokeColor=none;fillColor=#505050;labelPosition=center;verticalLabelPosition=bottom;verticalAlign=top;outlineConnect=0;align=center;shape=mxgraph.office.users.writer;" vertex="1" parent="1">
          <mxGeometry x="70" y="59.5" width="54" height="59" as="geometry" />
        </mxCell>
        <mxCell id="oC4DnXtgayPT7bZELjzE-12" value="Oh, &lt;font color=&quot;#990000&quot;&gt;their result&lt;/font&gt; is aligned with mine." style="whiteSpace=wrap;html=1;shape=mxgraph.basic.cloud_callout;rotation=-15;strokeColor=#000000;" vertex="1" parent="1">
          <mxGeometry x="249.93" y="-11.56" width="150" height="99" as="geometry" />
        </mxCell>
        <mxCell id="oC4DnXtgayPT7bZELjzE-17" value="" style="whiteSpace=wrap;html=1;shape=mxgraph.basic.cloud_callout;rotation=-170;flipH=1;" vertex="1" parent="1">
          <mxGeometry x="214.93" y="190" width="150" height="99" as="geometry" />
        </mxCell>
        <mxCell id="oC4DnXtgayPT7bZELjzE-19" value="I used &lt;font color=&quot;#004c99&quot;&gt;their model&lt;/font&gt;&amp;nbsp;&lt;div style=&quot;text-wrap: nowrap;&quot;&gt;&lt;span style=&quot;text-wrap: wrap;&quot;&gt;in my study.&lt;/span&gt;&lt;/div&gt;" style="text;html=1;align=center;verticalAlign=middle;whiteSpace=wrap;rounded=0;rotation=15;" vertex="1" parent="1">
          <mxGeometry x="197.43" y="220" width="185" height="60" as="geometry" />
        </mxCell>
      </root>
    </mxGraphModel>
  </diagram>
  <diagram id="1en5_sJ0fhrxuzCgWYMv" name="diversity">
    <mxGraphModel dx="1210" dy="624" grid="1" gridSize="10" guides="1" tooltips="1" connect="1" arrows="1" fold="1" page="1" pageScale="1" pageWidth="1169" pageHeight="827" math="0" shadow="0">
      <root>
        <mxCell id="0" />
        <mxCell id="1" parent="0" />
        <mxCell id="xrYIoZwGSTPGBEzijvGp-1" value="&lt;b&gt;&lt;font style=&quot;font-size: 15px;&quot;&gt;34 findings&lt;/font&gt;&lt;/b&gt;" style="rounded=1;whiteSpace=wrap;html=1;" vertex="1" parent="1">
          <mxGeometry x="20" y="240" width="170" height="70" as="geometry" />
        </mxCell>
        <mxCell id="xrYIoZwGSTPGBEzijvGp-2" value="&lt;font style=&quot;font-size: 15px;&quot;&gt;Paul et al. (1963).&amp;nbsp;&lt;/font&gt;&lt;div style=&quot;font-size: 15px;&quot;&gt;&lt;font style=&quot;font-size: 15px;&quot;&gt;A longitudinal study of coronary heart disease. &lt;i style=&quot;&quot;&gt;Circulation, 28&lt;/i&gt;, 20–31.&lt;/font&gt;&lt;/div&gt;" style="text;html=1;align=left;verticalAlign=middle;whiteSpace=wrap;rounded=0;" vertex="1" parent="1">
          <mxGeometry x="20" y="150" width="170" height="100" as="geometry" />
        </mxCell>
        <mxCell id="xrYIoZwGSTPGBEzijvGp-5" value="&lt;b&gt;&lt;font style=&quot;font-size: 15px;&quot;&gt;18 of the 34 findings&lt;/font&gt;&lt;/b&gt;" style="rounded=1;whiteSpace=wrap;html=1;" vertex="1" parent="1">
          <mxGeometry x="210" y="240" width="120" height="70" as="geometry" />
        </mxCell>
        <mxCell id="xrYIoZwGSTPGBEzijvGp-7" value="&lt;font style=&quot;font-size: 15px;&quot;&gt;Citing Paper 1&lt;/font&gt;" style="rounded=1;whiteSpace=wrap;html=1;" vertex="1" parent="1">
          <mxGeometry x="470" y="60" width="130" height="90" as="geometry" />
        </mxCell>
        <mxCell id="xrYIoZwGSTPGBEzijvGp-8" value="&lt;font style=&quot;font-size: 15px;&quot;&gt;Citing Paper 2&lt;/font&gt;" style="rounded=1;whiteSpace=wrap;html=1;" vertex="1" parent="1">
          <mxGeometry x="470" y="180" width="130" height="90" as="geometry" />
        </mxCell>
        <mxCell id="xrYIoZwGSTPGBEzijvGp-9" value="&lt;font style=&quot;font-size: 15px;&quot;&gt;&lt;i&gt;85 Citing Papers&lt;/i&gt;&lt;/font&gt;" style="rounded=1;whiteSpace=wrap;html=1;" vertex="1" parent="1">
          <mxGeometry x="470" y="340" width="130" height="100" as="geometry" />
        </mxCell>
        <mxCell id="xrYIoZwGSTPGBEzijvGp-10" value="&lt;font style=&quot;font-size: 15px;&quot;&gt;Citing Paper 343&lt;/font&gt;" style="rounded=1;whiteSpace=wrap;html=1;" vertex="1" parent="1">
          <mxGeometry x="470" y="510" width="130" height="40" as="geometry" />
        </mxCell>
        <mxCell id="xrYIoZwGSTPGBEzijvGp-11" value="&lt;b&gt;&lt;font style=&quot;font-size: 15px;&quot;&gt;343 Citing Papers&lt;/font&gt;&lt;/b&gt;" style="text;html=1;align=center;verticalAlign=middle;resizable=0;points=[];autosize=1;strokeColor=none;fillColor=none;" vertex="1" parent="1">
          <mxGeometry x="460" y="30" width="150" height="30" as="geometry" />
        </mxCell>
        <mxCell id="xrYIoZwGSTPGBEzijvGp-12" value="&lt;font style=&quot;font-size: 17px;&quot;&gt;&lt;b&gt;.&lt;/b&gt;&lt;/font&gt;&lt;div style=&quot;font-size: 17px;&quot;&gt;&lt;font style=&quot;font-size: 17px;&quot;&gt;&lt;b&gt;.&lt;/b&gt;&lt;/font&gt;&lt;/div&gt;&lt;div style=&quot;font-size: 17px;&quot;&gt;&lt;font style=&quot;font-size: 17px;&quot;&gt;&lt;b&gt;.&lt;/b&gt;&lt;/font&gt;&lt;/div&gt;" style="text;html=1;align=center;verticalAlign=middle;resizable=0;points=[];autosize=1;strokeColor=none;fillColor=none;" vertex="1" parent="1">
          <mxGeometry x="520" y="440" width="30" height="70" as="geometry" />
        </mxCell>
        <mxCell id="xrYIoZwGSTPGBEzijvGp-13" value="&lt;font style=&quot;font-size: 17px;&quot;&gt;&lt;b&gt;.&lt;/b&gt;&lt;/font&gt;&lt;div style=&quot;font-size: 17px;&quot;&gt;&lt;font style=&quot;font-size: 17px;&quot;&gt;&lt;b&gt;.&lt;/b&gt;&lt;/font&gt;&lt;/div&gt;&lt;div style=&quot;font-size: 17px;&quot;&gt;&lt;font style=&quot;font-size: 17px;&quot;&gt;&lt;b&gt;.&lt;/b&gt;&lt;/font&gt;&lt;/div&gt;" style="text;html=1;align=center;verticalAlign=middle;resizable=0;points=[];autosize=1;strokeColor=none;fillColor=none;" vertex="1" parent="1">
          <mxGeometry x="520" y="270" width="30" height="70" as="geometry" />
        </mxCell>
        <mxCell id="xrYIoZwGSTPGBEzijvGp-18" value="" style="endArrow=none;html=1;rounded=0;exitX=1;exitY=0.5;exitDx=0;exitDy=0;entryX=0;entryY=0.5;entryDx=0;entryDy=0;" edge="1" parent="1" source="xrYIoZwGSTPGBEzijvGp-1" target="xrYIoZwGSTPGBEzijvGp-5">
          <mxGeometry width="50" height="50" relative="1" as="geometry">
            <mxPoint x="550" y="460" as="sourcePoint" />
            <mxPoint x="600" y="410" as="targetPoint" />
          </mxGeometry>
        </mxCell>
        <mxCell id="xrYIoZwGSTPGBEzijvGp-23" value="" style="endArrow=classic;html=1;rounded=0;entryX=0;entryY=0.5;entryDx=0;entryDy=0;exitX=1;exitY=0.5;exitDx=0;exitDy=0;fontColor=#004C99;strokeColor=#004C99;" edge="1" parent="1" source="xrYIoZwGSTPGBEzijvGp-5" target="xrYIoZwGSTPGBEzijvGp-7">
          <mxGeometry relative="1" as="geometry">
            <mxPoint x="360" y="144.5" as="sourcePoint" />
            <mxPoint x="430" y="145" as="targetPoint" />
          </mxGeometry>
        </mxCell>
        <mxCell id="xrYIoZwGSTPGBEzijvGp-24" value="Finding 1" style="edgeLabel;resizable=0;html=1;;align=center;verticalAlign=middle;fontSize=14;fontColor=#004C99;" connectable="0" vertex="1" parent="xrYIoZwGSTPGBEzijvGp-23">
          <mxGeometry relative="1" as="geometry" />
        </mxCell>
        <mxCell id="xrYIoZwGSTPGBEzijvGp-25" value="" style="endArrow=classic;html=1;rounded=0;entryX=0;entryY=0.75;entryDx=0;entryDy=0;exitX=1;exitY=0.5;exitDx=0;exitDy=0;fontColor=#990000;strokeColor=#990000;" edge="1" parent="1" source="xrYIoZwGSTPGBEzijvGp-5" target="xrYIoZwGSTPGBEzijvGp-8">
          <mxGeometry relative="1" as="geometry">
            <mxPoint x="370" y="154.5" as="sourcePoint" />
            <mxPoint x="480" y="155" as="targetPoint" />
          </mxGeometry>
        </mxCell>
        <mxCell id="xrYIoZwGSTPGBEzijvGp-26" value="Finding 2" style="edgeLabel;resizable=0;html=1;;align=center;verticalAlign=middle;fontSize=14;fontColor=#990000;" connectable="0" vertex="1" parent="xrYIoZwGSTPGBEzijvGp-25">
          <mxGeometry relative="1" as="geometry" />
        </mxCell>
        <mxCell id="xrYIoZwGSTPGBEzijvGp-27" value="" style="endArrow=classic;html=1;rounded=0;entryX=0;entryY=0.5;entryDx=0;entryDy=0;exitX=1;exitY=0.5;exitDx=0;exitDy=0;strokeColor=#CC0000;" edge="1" parent="1" source="xrYIoZwGSTPGBEzijvGp-5" target="xrYIoZwGSTPGBEzijvGp-9">
          <mxGeometry relative="1" as="geometry">
            <mxPoint x="370" y="155" as="sourcePoint" />
            <mxPoint x="480" y="225" as="targetPoint" />
          </mxGeometry>
        </mxCell>
        <mxCell id="xrYIoZwGSTPGBEzijvGp-28" value="&lt;font color=&quot;#cc0000&quot;&gt;Finding 3&lt;/font&gt;" style="edgeLabel;resizable=0;html=1;;align=center;verticalAlign=middle;fontSize=14;fontColor=#663300;" connectable="0" vertex="1" parent="xrYIoZwGSTPGBEzijvGp-27">
          <mxGeometry relative="1" as="geometry" />
        </mxCell>
        <mxCell id="xrYIoZwGSTPGBEzijvGp-29" value="" style="endArrow=classic;html=1;rounded=0;entryX=0;entryY=0.5;entryDx=0;entryDy=0;exitX=1;exitY=0.5;exitDx=0;exitDy=0;" edge="1" parent="1" source="xrYIoZwGSTPGBEzijvGp-5" target="xrYIoZwGSTPGBEzijvGp-10">
          <mxGeometry relative="1" as="geometry">
            <mxPoint x="370" y="155" as="sourcePoint" />
            <mxPoint x="480" y="370" as="targetPoint" />
          </mxGeometry>
        </mxCell>
        <mxCell id="xrYIoZwGSTPGBEzijvGp-30" value="Finding 18" style="edgeLabel;resizable=0;html=1;;align=center;verticalAlign=middle;fontSize=14;" connectable="0" vertex="1" parent="xrYIoZwGSTPGBEzijvGp-29">
          <mxGeometry relative="1" as="geometry" />
        </mxCell>
        <mxCell id="xrYIoZwGSTPGBEzijvGp-31" value="" style="endArrow=classic;html=1;rounded=0;entryX=0;entryY=0.25;entryDx=0;entryDy=0;exitX=1;exitY=0.5;exitDx=0;exitDy=0;fontColor=#004C99;strokeColor=#004C99;" edge="1" parent="1" source="xrYIoZwGSTPGBEzijvGp-5" target="xrYIoZwGSTPGBEzijvGp-8">
          <mxGeometry relative="1" as="geometry">
            <mxPoint x="330" y="270" as="sourcePoint" />
            <mxPoint x="480" y="135" as="targetPoint" />
          </mxGeometry>
        </mxCell>
        <mxCell id="xrYIoZwGSTPGBEzijvGp-32" value="Finding 1" style="edgeLabel;resizable=0;html=1;;align=center;verticalAlign=middle;fontSize=14;fontColor=#004C99;" connectable="0" vertex="1" parent="xrYIoZwGSTPGBEzijvGp-31">
          <mxGeometry relative="1" as="geometry" />
        </mxCell>
      </root>
    </mxGraphModel>
  </diagram>
  <diagram name="Copy of diversity" id="Hi87f3yBLJPzWrfxxgnJ">
    <mxGraphModel dx="1210" dy="624" grid="1" gridSize="10" guides="1" tooltips="1" connect="1" arrows="1" fold="1" page="1" pageScale="1" pageWidth="1169" pageHeight="827" math="0" shadow="0">
      <root>
        <mxCell id="4VsHvRfKWa6_Y9T8nmUp-0" />
        <mxCell id="4VsHvRfKWa6_Y9T8nmUp-1" parent="4VsHvRfKWa6_Y9T8nmUp-0" />
        <mxCell id="4VsHvRfKWa6_Y9T8nmUp-2" value="&lt;b&gt;&lt;font style=&quot;font-size: 15px;&quot;&gt;34 findings&lt;/font&gt;&lt;/b&gt;" style="rounded=1;whiteSpace=wrap;html=1;" vertex="1" parent="4VsHvRfKWa6_Y9T8nmUp-1">
          <mxGeometry x="20" y="240" width="170" height="70" as="geometry" />
        </mxCell>
        <mxCell id="4VsHvRfKWa6_Y9T8nmUp-3" value="&lt;font style=&quot;font-size: 15px;&quot;&gt;Paul et al. (1963).&amp;nbsp;&lt;/font&gt;&lt;div style=&quot;font-size: 15px;&quot;&gt;&lt;font style=&quot;font-size: 15px;&quot;&gt;A longitudinal study of coronary heart disease. &lt;i style=&quot;&quot;&gt;Circulation, 28&lt;/i&gt;, 20–31.&lt;/font&gt;&lt;/div&gt;" style="text;html=1;align=left;verticalAlign=middle;whiteSpace=wrap;rounded=0;" vertex="1" parent="4VsHvRfKWa6_Y9T8nmUp-1">
          <mxGeometry x="20" y="150" width="170" height="100" as="geometry" />
        </mxCell>
        <mxCell id="4VsHvRfKWa6_Y9T8nmUp-4" value="&lt;b&gt;&lt;font style=&quot;font-size: 15px;&quot;&gt;18 of the 34 findings&lt;/font&gt;&lt;/b&gt;" style="rounded=1;whiteSpace=wrap;html=1;" vertex="1" parent="4VsHvRfKWa6_Y9T8nmUp-1">
          <mxGeometry x="210" y="240" width="120" height="70" as="geometry" />
        </mxCell>
        <mxCell id="4VsHvRfKWa6_Y9T8nmUp-6" value="&lt;font style=&quot;font-size: 15px;&quot;&gt;Citing Paper 1&lt;/font&gt;" style="rounded=1;whiteSpace=wrap;html=1;" vertex="1" parent="4VsHvRfKWa6_Y9T8nmUp-1">
          <mxGeometry x="470" y="180" width="130" height="90" as="geometry" />
        </mxCell>
        <mxCell id="4VsHvRfKWa6_Y9T8nmUp-7" value="&lt;font style=&quot;font-size: 15px;&quot;&gt;&lt;i&gt;85 Citing Papers&lt;/i&gt;&lt;/font&gt;" style="rounded=1;whiteSpace=wrap;html=1;" vertex="1" parent="4VsHvRfKWa6_Y9T8nmUp-1">
          <mxGeometry x="470" y="340" width="130" height="100" as="geometry" />
        </mxCell>
        <mxCell id="4VsHvRfKWa6_Y9T8nmUp-8" value="&lt;font style=&quot;font-size: 15px;&quot;&gt;Citing Paper 343&lt;/font&gt;" style="rounded=1;whiteSpace=wrap;html=1;" vertex="1" parent="4VsHvRfKWa6_Y9T8nmUp-1">
          <mxGeometry x="470" y="510" width="130" height="40" as="geometry" />
        </mxCell>
        <mxCell id="4VsHvRfKWa6_Y9T8nmUp-9" value="&lt;b&gt;&lt;font style=&quot;font-size: 15px;&quot;&gt;343 Citing Papers&lt;/font&gt;&lt;/b&gt;" style="text;html=1;align=center;verticalAlign=middle;resizable=0;points=[];autosize=1;strokeColor=none;fillColor=none;" vertex="1" parent="4VsHvRfKWa6_Y9T8nmUp-1">
          <mxGeometry x="460" y="140" width="150" height="30" as="geometry" />
        </mxCell>
        <mxCell id="4VsHvRfKWa6_Y9T8nmUp-10" value="&lt;font style=&quot;font-size: 17px;&quot;&gt;&lt;b&gt;.&lt;/b&gt;&lt;/font&gt;&lt;div style=&quot;font-size: 17px;&quot;&gt;&lt;font style=&quot;font-size: 17px;&quot;&gt;&lt;b&gt;.&lt;/b&gt;&lt;/font&gt;&lt;/div&gt;&lt;div style=&quot;font-size: 17px;&quot;&gt;&lt;font style=&quot;font-size: 17px;&quot;&gt;&lt;b&gt;.&lt;/b&gt;&lt;/font&gt;&lt;/div&gt;" style="text;html=1;align=center;verticalAlign=middle;resizable=0;points=[];autosize=1;strokeColor=none;fillColor=none;" vertex="1" parent="4VsHvRfKWa6_Y9T8nmUp-1">
          <mxGeometry x="520" y="440" width="30" height="70" as="geometry" />
        </mxCell>
        <mxCell id="4VsHvRfKWa6_Y9T8nmUp-11" value="&lt;font style=&quot;font-size: 17px;&quot;&gt;&lt;b&gt;.&lt;/b&gt;&lt;/font&gt;&lt;div style=&quot;font-size: 17px;&quot;&gt;&lt;font style=&quot;font-size: 17px;&quot;&gt;&lt;b&gt;.&lt;/b&gt;&lt;/font&gt;&lt;/div&gt;&lt;div style=&quot;font-size: 17px;&quot;&gt;&lt;font style=&quot;font-size: 17px;&quot;&gt;&lt;b&gt;.&lt;/b&gt;&lt;/font&gt;&lt;/div&gt;" style="text;html=1;align=center;verticalAlign=middle;resizable=0;points=[];autosize=1;strokeColor=none;fillColor=none;" vertex="1" parent="4VsHvRfKWa6_Y9T8nmUp-1">
          <mxGeometry x="520" y="270" width="30" height="70" as="geometry" />
        </mxCell>
        <mxCell id="4VsHvRfKWa6_Y9T8nmUp-12" value="" style="endArrow=none;html=1;rounded=0;exitX=1;exitY=0.5;exitDx=0;exitDy=0;entryX=0;entryY=0.5;entryDx=0;entryDy=0;" edge="1" parent="4VsHvRfKWa6_Y9T8nmUp-1" source="4VsHvRfKWa6_Y9T8nmUp-2" target="4VsHvRfKWa6_Y9T8nmUp-4">
          <mxGeometry width="50" height="50" relative="1" as="geometry">
            <mxPoint x="550" y="460" as="sourcePoint" />
            <mxPoint x="600" y="410" as="targetPoint" />
          </mxGeometry>
        </mxCell>
        <mxCell id="4VsHvRfKWa6_Y9T8nmUp-15" value="" style="endArrow=classic;html=1;rounded=0;entryX=0;entryY=0.75;entryDx=0;entryDy=0;exitX=1;exitY=0.5;exitDx=0;exitDy=0;fontColor=#990000;strokeColor=#990000;" edge="1" parent="4VsHvRfKWa6_Y9T8nmUp-1" source="4VsHvRfKWa6_Y9T8nmUp-4" target="4VsHvRfKWa6_Y9T8nmUp-6">
          <mxGeometry relative="1" as="geometry">
            <mxPoint x="370" y="154.5" as="sourcePoint" />
            <mxPoint x="480" y="155" as="targetPoint" />
          </mxGeometry>
        </mxCell>
        <mxCell id="4VsHvRfKWa6_Y9T8nmUp-16" value="Finding 2" style="edgeLabel;resizable=0;html=1;;align=center;verticalAlign=middle;fontSize=14;fontColor=#990000;" connectable="0" vertex="1" parent="4VsHvRfKWa6_Y9T8nmUp-15">
          <mxGeometry relative="1" as="geometry" />
        </mxCell>
        <mxCell id="4VsHvRfKWa6_Y9T8nmUp-17" value="" style="endArrow=classic;html=1;rounded=0;entryX=0;entryY=0.5;entryDx=0;entryDy=0;exitX=1;exitY=0.5;exitDx=0;exitDy=0;strokeColor=#CC0000;" edge="1" parent="4VsHvRfKWa6_Y9T8nmUp-1" source="4VsHvRfKWa6_Y9T8nmUp-4" target="4VsHvRfKWa6_Y9T8nmUp-7">
          <mxGeometry relative="1" as="geometry">
            <mxPoint x="370" y="155" as="sourcePoint" />
            <mxPoint x="480" y="225" as="targetPoint" />
          </mxGeometry>
        </mxCell>
        <mxCell id="4VsHvRfKWa6_Y9T8nmUp-18" value="&lt;font color=&quot;#cc0000&quot;&gt;Finding 3&lt;/font&gt;" style="edgeLabel;resizable=0;html=1;;align=center;verticalAlign=middle;fontSize=14;fontColor=#663300;" connectable="0" vertex="1" parent="4VsHvRfKWa6_Y9T8nmUp-17">
          <mxGeometry relative="1" as="geometry" />
        </mxCell>
        <mxCell id="4VsHvRfKWa6_Y9T8nmUp-19" value="" style="endArrow=classic;html=1;rounded=0;entryX=0;entryY=0.5;entryDx=0;entryDy=0;exitX=1;exitY=0.5;exitDx=0;exitDy=0;" edge="1" parent="4VsHvRfKWa6_Y9T8nmUp-1" source="4VsHvRfKWa6_Y9T8nmUp-4" target="4VsHvRfKWa6_Y9T8nmUp-8">
          <mxGeometry relative="1" as="geometry">
            <mxPoint x="370" y="155" as="sourcePoint" />
            <mxPoint x="480" y="370" as="targetPoint" />
          </mxGeometry>
        </mxCell>
        <mxCell id="4VsHvRfKWa6_Y9T8nmUp-20" value="Finding 18" style="edgeLabel;resizable=0;html=1;;align=center;verticalAlign=middle;fontSize=14;" connectable="0" vertex="1" parent="4VsHvRfKWa6_Y9T8nmUp-19">
          <mxGeometry relative="1" as="geometry" />
        </mxCell>
        <mxCell id="4VsHvRfKWa6_Y9T8nmUp-21" value="" style="endArrow=classic;html=1;rounded=0;entryX=0;entryY=0.25;entryDx=0;entryDy=0;exitX=1;exitY=0.5;exitDx=0;exitDy=0;fontColor=#004C99;strokeColor=#004C99;" edge="1" parent="4VsHvRfKWa6_Y9T8nmUp-1" source="4VsHvRfKWa6_Y9T8nmUp-4" target="4VsHvRfKWa6_Y9T8nmUp-6">
          <mxGeometry relative="1" as="geometry">
            <mxPoint x="330" y="270" as="sourcePoint" />
            <mxPoint x="480" y="135" as="targetPoint" />
          </mxGeometry>
        </mxCell>
        <mxCell id="4VsHvRfKWa6_Y9T8nmUp-22" value="Finding 1" style="edgeLabel;resizable=0;html=1;;align=center;verticalAlign=middle;fontSize=14;fontColor=#004C99;" connectable="0" vertex="1" parent="4VsHvRfKWa6_Y9T8nmUp-21">
          <mxGeometry relative="1" as="geometry" />
        </mxCell>
        <mxCell id="sN6JNxdABW_mWHafrNVM-0" value="Text" style="text;html=1;align=center;verticalAlign=middle;whiteSpace=wrap;rounded=0;" vertex="1" parent="4VsHvRfKWa6_Y9T8nmUp-1">
          <mxGeometry x="550" y="290" width="60" height="30" as="geometry" />
        </mxCell>
        <mxCell id="sN6JNxdABW_mWHafrNVM-1" value="&lt;i&gt;&lt;font style=&quot;font-size: 21px;&quot;&gt;Reported in Leng (2021)&lt;/font&gt;&lt;/i&gt;" style="text;html=1;align=center;verticalAlign=middle;whiteSpace=wrap;rounded=0;" vertex="1" parent="4VsHvRfKWa6_Y9T8nmUp-1">
          <mxGeometry x="30" y="470" width="240" height="30" as="geometry" />
        </mxCell>
      </root>
    </mxGraphModel>
  </diagram>
</mxfile>
